<svg width="525" height="86" viewBox="0 0 525 86" fill="none" xmlns="http://www.w3.org/2000/svg">
<path fill-rule="evenodd" clip-rule="evenodd" d="M0 36.3939V72.7875L7.83485 72.7191L15.6697 72.6505L15.7992 49.7934L15.9287 26.9364L18.9073 30.7406C24.1953 37.4949 35.1745 51.5337 39.175 56.657C41.3165 59.3993 43.1787 61.6428 43.3134 61.6428C43.4481 61.6428 44.3347 61.2794 45.2836 60.835C51.4199 57.9624 59.9772 54.5244 63.5206 53.5083L65.0099 53.0812V26.5406V0H57.1116H49.2135L49.1472 22.488L49.0812 44.9759L44.5649 39.1289C42.0808 35.9132 34.2801 25.7936 27.2301 16.641L14.4115 0H7.20573H0V36.3939ZM94.1853 17.1041C91.4184 17.5371 88.7413 18.4076 85.8596 19.8117C75.5197 24.849 69.9555 35.5728 70.9918 48.4658C71.8009 58.5309 77.1683 66.9705 85.3416 71.0299C91.4122 74.0447 99.5374 74.9931 105.76 73.4135C108.226 72.7872 111.941 70.8652 114.183 69.055L116.214 67.4147L116.53 69.5147C116.703 70.6696 116.908 71.8766 116.986 72.1972L117.126 72.78H123.055H128.984V44.8076V16.8352H123.032H117.079L116.952 17.418C116.882 17.7384 116.642 19.1023 116.42 20.4486C116.197 21.7951 115.96 22.9526 115.891 23.021C115.823 23.0894 115.39 22.7887 114.929 22.3528C113.71 21.2002 111.146 19.5263 109.45 18.7762C106.315 17.3897 104.533 17.0471 99.9753 16.9541C97.6249 16.9059 95.0193 16.9735 94.1853 17.1041ZM132.869 16.9396C132.869 17.0836 135.433 22.7063 146.545 46.9291L156.133 67.8281L152.528 76.2887C150.545 80.9422 148.859 84.8534 148.78 84.9808C148.698 85.1145 151.838 85.2116 156.229 85.2111L163.82 85.2101L167.616 76.5992C169.704 71.8633 176.447 56.6246 182.599 42.7356C188.752 28.8465 193.846 17.3354 193.919 17.1554C194.025 16.8945 192.398 16.8417 185.947 16.8963L177.841 16.9647L175.289 22.9218C172.394 29.6782 169.639 36.1452 166.138 44.4043L163.728 50.0879L163.108 48.6779C162.767 47.9027 159.524 40.4209 155.902 32.0522L149.315 16.836L141.092 16.8357C136.569 16.8355 132.869 16.8821 132.869 16.9396ZM214.516 17.223C200.508 19.7622 191.65 30.759 191.669 45.5846C191.686 58.499 198.426 68.6476 209.493 72.4244C212.931 73.5974 216.05 74.0985 220.023 74.1162C226.311 74.1441 231.645 72.2001 235.808 68.3629L236.958 67.3031L237.11 68.1637C237.194 68.6372 237.406 69.8403 237.582 70.8374L237.901 72.6505H243.855H249.809L249.875 44.7428L249.941 16.8352H243.898H237.855L237.404 19.49C236.732 23.4442 236.972 23.2456 234.836 21.6182C231.713 19.238 228.396 17.7617 224.703 17.1074C222.62 16.7386 216.826 16.8044 214.516 17.223ZM254.871 17.0295C254.878 17.1362 259.359 23.401 264.828 30.9509L274.773 44.6781L274.307 45.4551C274.051 45.8825 270.153 52.0949 265.645 59.2608C261.138 66.4263 257.449 72.3995 257.449 72.5347C257.449 72.9338 274.158 72.8569 274.485 72.4562C274.63 72.2783 276.635 68.9273 278.94 65.0099C281.246 61.0924 283.211 57.809 283.306 57.7132C283.401 57.6174 285.791 60.9684 288.617 65.1596L293.755 72.78H302.28C306.968 72.78 310.804 72.7204 310.804 72.6474C310.804 72.5746 306.659 66.3862 301.592 58.8953C296.525 51.4044 292.319 45.1168 292.244 44.9229C292.122 44.6038 293.94 41.762 299.278 33.9295C300.298 32.4337 303.315 27.9757 305.983 24.0226L310.834 16.8352L302.207 16.8401L293.58 16.8451L288.53 24.6084C285.752 28.8781 283.421 32.3671 283.35 32.3617C283.279 32.3563 280.662 28.8605 277.536 24.5934L271.852 16.8352H263.356C258.683 16.8352 254.865 16.9228 254.871 17.0295ZM103.029 30.9719C105.994 31.58 108.101 32.686 110.106 34.6865C113.004 37.5775 114.296 40.8946 114.303 45.4551C114.317 54.9173 107.925 60.8764 98.4265 60.2584C93.9807 59.9691 91.1928 58.8505 88.6867 56.3511C82.6483 50.328 83.5682 37.7505 90.3803 33.2016C93.9558 30.8139 98.4218 30.0268 103.029 30.9719ZM225.074 31.2226C232.48 33.4332 236.407 40.6537 234.793 49.0913C233.236 57.2266 225.76 61.6977 216.614 59.9627C211.101 58.9168 207.407 55.4454 206.001 49.9877C205.426 47.7576 205.42 43.1658 205.989 40.9938C207.444 35.4412 211.357 31.8655 217.109 30.8318C218.985 30.4948 223.354 30.7093 225.074 31.2226Z" fill="#252525"/>
<path d="M64.8806 72.6506V57.1104C50.4921 62.1433 43.312 65.6251 31.5986 72.6506H64.8806Z" fill="#FCCC06"/>
<rect x="341.885" y="17.6123" width="183.115" height="49.641" rx="10.299" fill="#FCC705"/>
<path d="M376.655 44.185C376.655 42.2546 376.462 40.7044 376.076 39.5345C375.702 38.3645 375.193 37.4753 374.55 36.8669C373.918 36.2586 373.21 35.8491 372.426 35.6385C371.654 35.4279 370.864 35.3226 370.057 35.3226H367.828V53.3283H370.074C370.917 53.3283 371.73 53.1937 372.514 52.9247C373.298 52.6556 374 52.1876 374.62 51.5207C375.252 50.8538 375.749 49.9296 376.111 48.7479C376.474 47.5545 376.655 46.0336 376.655 44.185ZM380.938 44.185C380.938 46.1857 380.721 47.8938 380.288 49.3095C379.867 50.7251 379.282 51.9009 378.533 52.8369C377.796 53.7612 376.942 54.4866 375.971 55.013C375.012 55.5278 373.994 55.8905 372.917 56.1011C371.841 56.3117 370.765 56.417 369.688 56.417H363.757V32.1988H369.285C370.759 32.1988 372.186 32.3567 373.567 32.6726C374.959 32.9885 376.205 33.5735 377.305 34.4276C378.416 35.2816 379.3 36.4926 379.955 38.0603C380.61 39.628 380.938 41.6696 380.938 44.185ZM390.33 35.2875V42.5705H399.105V45.6592H390.33V53.3283H401.018V56.417H386.259V32.1988H400.825L400.369 35.2875H390.33ZM413.956 52.5561L419.747 32.1988H423.871L416.202 56.417H411.534L403.865 32.1988H408.217L413.956 52.5561ZM431.105 53.0475H443.355L442.898 56.417H426.455V53.2581L438.774 35.4981H427.718V32.1988H443.267V35.3928L431.105 53.0475ZM465.173 44.3079C465.173 46.7999 464.827 48.9936 464.137 50.8889C463.447 52.7726 462.417 54.2467 461.048 55.3114C459.68 56.3643 457.983 56.8908 455.959 56.8908C453.947 56.8908 452.25 56.376 450.87 55.3465C449.501 54.3052 448.471 52.8486 447.781 50.9767C447.091 49.093 446.746 46.8818 446.746 44.343C446.746 41.8393 447.091 39.6456 447.781 37.762C448.471 35.8666 449.501 34.3866 450.87 33.322C452.25 32.2456 453.947 31.7074 455.959 31.7074C457.983 31.7074 459.68 32.228 461.048 33.2693C462.417 34.3106 463.447 35.7789 464.137 37.6742C464.827 39.5579 465.173 41.7691 465.173 44.3079ZM460.961 44.3079C460.961 41.1724 460.569 38.8208 459.785 37.253C459.013 35.6736 457.737 34.8839 455.959 34.8839C454.181 34.8839 452.9 35.6794 452.116 37.2706C451.344 38.85 450.958 41.2075 450.958 44.343C450.958 47.4668 451.355 49.8126 452.151 51.3803C452.946 52.9364 454.216 53.7144 455.959 53.7144C457.761 53.7144 459.042 52.9305 459.802 51.3628C460.575 49.7833 460.961 47.4317 460.961 44.3079ZM479.725 56.417L472.021 35.814C472.056 36.1767 472.103 36.6914 472.161 37.3583C472.231 38.0252 472.296 38.7974 472.354 39.6748C472.424 40.5523 472.483 41.4824 472.53 42.4652C472.576 43.448 472.6 44.4307 472.6 45.4135V56.417H468.985V32.1988H474.267L481.989 52.8194C481.93 52.328 481.854 51.6085 481.761 50.6608C481.679 49.7014 481.597 48.59 481.515 47.3264C481.445 46.0511 481.41 44.6881 481.41 43.2374V32.1988H485.025V56.417H479.725ZM495.558 35.2875V42.5705H504.333V45.6592H495.558V53.3283H506.246V56.417H491.487V32.1988H506.053L505.597 35.2875H495.558Z" fill="#252525"/>
</svg>
